<svg width="17" height="29" viewBox="0 0 17 29" fill="none" xmlns="http://www.w3.org/2000/svg">
<path d="M15.1798 28.9982C14.9405 28.9993 14.7033 28.9542 14.4822 28.8656C14.2612 28.7771 14.0606 28.6468 13.8924 28.4825L0.532784 15.5899C0.191626 15.2603 0 14.8134 0 14.3475C0 13.8816 0.191626 13.4348 0.532784 13.1052L13.8924 0.282925C14.2348 0.0686956 14.6418 -0.0283995 15.0482 0.00720157C15.4546 0.0428026 15.8368 0.209039 16.1337 0.479265C16.4305 0.749491 16.6247 1.10806 16.6852 1.4975C16.7457 1.88694 16.6689 2.2847 16.4672 2.62703L4.32207 14.3475L16.4672 26.068C16.8084 26.3977 17 26.8445 17 27.3104C17 27.7763 16.8084 28.2231 16.4672 28.5528C16.1157 28.8591 15.653 29.0192 15.1798 28.9982Z" fill="white"/>
</svg>
