<svg width="18" height="20" viewBox="0 0 18 20" fill="none" xmlns="http://www.w3.org/2000/svg">
<path d="M10.75 13.75V15.75C10.75 16.5456 10.4339 17.3087 9.87132 17.8713C9.30871 18.4339 8.54565 18.75 7.75 18.75H3.75C2.95435 18.75 2.19129 18.4339 1.62868 17.8713C1.06607 17.3087 0.75 16.5456 0.75 15.75V3.75C0.75 2.95435 1.06607 2.19129 1.62868 1.62868C2.19129 1.06607 2.95435 0.75 3.75 0.75H7.75C8.54565 0.75 9.30871 1.06607 9.87132 1.62868C10.4339 2.19129 10.75 2.95435 10.75 3.75V5.75" stroke="white" stroke-width="1.5" stroke-linecap="round" stroke-linejoin="round"/>
<path d="M17.25 9.47998H5.25" stroke="white" stroke-width="1.5" stroke-linecap="round" stroke-linejoin="round"/>
<path d="M13.65 5.88L17.25 9.48L13.65 13.08" stroke="white" stroke-width="1.5" stroke-linecap="round" stroke-linejoin="round"/>
</svg>
