<svg width="28" height="23" viewBox="0 0 28 23" fill="none" xmlns="http://www.w3.org/2000/svg">
<path d="M0 19.25V3.5C0 2.57174 0.368749 1.6815 1.02513 1.02513C1.6815 0.36875 2.57174 1.09888e-06 3.5 1.09888e-06H10.7975C11.2593 -0.00036486 11.7167 0.0906788 12.1432 0.267885C12.5697 0.445092 12.9569 0.704957 13.2825 1.0325L16.4675 4.2175C16.7931 4.54505 17.1803 4.80491 17.6068 4.98212C18.0333 5.15932 18.4907 5.25037 18.9525 5.25H24.5C25.4283 5.25 26.3185 5.61875 26.9749 6.27513C27.6313 6.93151 28 7.82174 28 8.75V19.25C28 20.1783 27.6313 21.0685 26.9749 21.7249C26.3185 22.3813 25.4283 22.75 24.5 22.75H3.5C2.57174 22.75 1.6815 22.3813 1.02513 21.7249C0.368749 21.0685 0 20.1783 0 19.25Z" fill="#F6BD00"/>
</svg>
