<svg width="38" height="37" viewBox="0 0 38 37" fill="none" xmlns="http://www.w3.org/2000/svg">
<path d="M32.835 6.89559V29.881H4.69069V6.89559H32.835ZM32.835 4.59705H4.69069C4.06867 4.59705 3.47212 4.83921 3.03228 5.27027C2.59244 5.70133 2.34534 6.28598 2.34534 6.89559V29.881C2.34534 30.4906 2.59244 31.0752 3.03228 31.5063C3.47212 31.9374 4.06867 32.1795 4.69069 32.1795H32.835C33.457 32.1795 34.0536 31.9374 34.4934 31.5063C34.9332 31.0752 35.1803 30.4906 35.1803 29.881V6.89559C35.1803 6.28598 34.9332 5.70133 34.4934 5.27027C34.0536 4.83921 33.457 4.59705 32.835 4.59705Z" fill="white"/>
<path d="M7.03601 11.4927H15.2448V13.7912H7.03601V11.4927Z" fill="white"/>
<path d="M7.03601 16.0897H11.7267V18.3883H7.03601V16.0897Z" fill="white"/>
<path d="M26.9716 20.6869H19.9355C19.0025 20.6869 18.1076 21.0501 17.4479 21.6967C16.7881 22.3433 16.4175 23.2203 16.4175 24.1347V26.4332H18.7628V24.1347C18.7628 23.8299 18.8864 23.5376 19.1063 23.322C19.3262 23.1065 19.6245 22.9854 19.9355 22.9854H26.9716C27.2826 22.9854 27.5809 23.1065 27.8008 23.322C28.0207 23.5376 28.1443 23.8299 28.1443 24.1347V26.4332H30.4896V24.1347C30.4896 23.2203 30.119 22.3433 29.4592 21.6967C28.7995 21.0501 27.9046 20.6869 26.9716 20.6869Z" fill="white"/>
<path d="M23.4535 19.5375C24.3813 19.5375 25.2882 19.2679 26.0596 18.7628C26.8309 18.2577 27.4322 17.5397 27.7872 16.6997C28.1422 15.8597 28.2351 14.9354 28.0541 14.0436C27.8731 13.1519 27.4264 12.3328 26.7704 11.6898C26.1144 11.0469 25.2786 10.6091 24.3686 10.4317C23.4587 10.2543 22.5156 10.3454 21.6585 10.6933C20.8014 11.0413 20.0688 11.6305 19.5533 12.3865C19.0379 13.1425 18.7628 14.0313 18.7628 14.9405C18.7628 16.1597 19.257 17.329 20.1367 18.1911C21.0164 19.0532 22.2095 19.5375 23.4535 19.5375ZM23.4535 12.6419C23.9174 12.6419 24.3709 12.7767 24.7565 13.0293C25.1422 13.2819 25.4428 13.6409 25.6204 14.0609C25.7979 14.4809 25.8443 14.943 25.7538 15.3889C25.6633 15.8348 25.44 16.2443 25.1119 16.5658C24.7839 16.8872 24.366 17.1062 23.9111 17.1948C23.4561 17.2835 22.9846 17.238 22.556 17.064C22.1274 16.8901 21.7611 16.5955 21.5034 16.2175C21.2457 15.8395 21.1082 15.3951 21.1082 14.9405C21.1082 14.3309 21.3553 13.7462 21.7951 13.3152C22.235 12.8841 22.8315 12.6419 23.4535 12.6419Z" fill="white"/>
</svg>
