<svg width="30" height="30" viewBox="0 0 30 30" fill="none" xmlns="http://www.w3.org/2000/svg">
<path d="M15 12.2625C17.0711 12.2625 18.75 10.5835 18.75 8.51245C18.75 6.44138 17.0711 4.76245 15 4.76245C12.9289 4.76245 11.25 6.44138 11.25 8.51245C11.25 10.5835 12.9289 12.2625 15 12.2625Z" fill="white"/>
<path d="M6.01241 25.2374C5.96152 25.2358 5.91144 25.2242 5.86504 25.2032C5.81865 25.1822 5.77684 25.1523 5.74201 25.1151C5.70718 25.078 5.68002 25.0343 5.66207 24.9867C5.64413 24.939 5.63575 24.8883 5.63742 24.8374C5.63742 22.351 6.62514 19.9664 8.38329 18.2083C10.1414 16.4501 12.526 15.4624 15.0124 15.4624C17.4988 15.4624 19.8834 16.4501 21.6415 18.2083C23.3997 19.9664 24.3874 22.351 24.3874 24.8374C24.3891 24.8883 24.3807 24.939 24.3628 24.9867C24.3448 25.0343 24.3176 25.078 24.2828 25.1151C24.248 25.1523 24.2062 25.1822 24.1598 25.2032C24.1134 25.2242 24.0633 25.2358 24.0124 25.2374H6.01241Z" fill="white"/>
</svg>
